<?xml version="1.0" standalone="no"?>
<!DOCTYPE svg PUBLIC "-//W3C//DTD SVG 20010904//EN"
 "http://www.w3.org/TR/2001/REC-SVG-20010904/DTD/svg10.dtd">
<svg version="1.0" xmlns="http://www.w3.org/2000/svg"
 width="1014.000000pt" height="600.000000pt" viewBox="0 0 1014.000000 600.000000"
 preserveAspectRatio="xMidYMid meet">

<g transform="translate(0.000000,600.000000) scale(0.100000,-0.100000)"
fill="#000000" stroke="none">
<path d="M0 3000 l0 -3000 5070 0 5070 0 0 3000 0 3000 -5070 0 -5070 0 0
-3000z m4040 853 c0 -10 -7 -60 -15 -112 -9 -52 -14 -95 -12 -97 2 -2 20 19
41 46 36 47 41 50 83 50 52 0 52 -1 -20 -77 l-40 -42 41 -65 41 -66 -49 0 -50
0 -27 53 -27 52 -10 -52 c-9 -52 -10 -53 -42 -53 -42 0 -41 -10 -9 204 14 92
25 169 25 172 0 2 16 4 35 4 27 0 35 -4 35 -17z m-687 -14 c29 -16 37 -28 37
-62 0 -32 -24 -83 -42 -89 -8 -3 -4 -12 10 -26 28 -28 29 -76 2 -120 -26 -42
-54 -52 -151 -52 -62 0 -79 3 -79 14 0 18 38 280 46 319 5 27 7 27 80 27 42 0
85 -5 97 -11z m1142 -86 c3 -32 8 -75 11 -96 l6 -37 46 95 46 95 43 0 43 0 0
-160 0 -160 -46 0 -47 0 6 93 6 92 -44 -92 c-42 -86 -47 -93 -75 -93 -32 0
-33 1 -48 130 l-7 65 -29 -97 -29 -98 -43 0 -43 0 50 148 c27 81 51 153 54
160 2 7 22 12 49 12 l45 0 6 -57z m3021 -30 c-3 -21 -28 -229 -56 -463 -27
-234 -53 -444 -56 -467 l-6 -43 -386 -2 c-359 -3 -387 -4 -390 -20 -3 -17 21
-18 406 -18 l410 0 6 38 c3 20 21 179 41 352 19 173 37 334 40 358 l6 42 219
0 219 0 39 -52 39 -53 -183 -3 c-101 -1 -184 -4 -184 -5 0 -2 -9 -90 -20 -197
-11 -107 -20 -195 -20 -197 0 -2 137 -3 305 -3 168 0 305 -1 305 -2 0 -2 -7
-59 -15 -128 -8 -69 -15 -128 -15 -132 0 -5 -38 -8 -85 -8 l-85 0 0 -90 0 -90
70 0 70 0 0 -60 0 -60 -78 0 -77 0 -18 50 c-45 125 -171 194 -294 159 -64 -18
-135 -87 -159 -156 l-19 -53 -460 0 -460 0 -18 51 c-23 63 -74 121 -134 150
-116 56 -276 -19 -328 -154 l-18 -47 -58 0 -59 0 0 50 0 50 -65 0 c-60 0 -66
2 -77 25 -8 19 -8 31 0 50 11 25 13 25 131 25 142 0 160 9 168 82 5 40 2 50
-20 72 -25 25 -29 26 -160 26 -90 0 -137 4 -145 12 -17 17 -15 49 4 76 l15 22
394 0 394 0 20 26 c29 37 27 85 -5 123 l-26 31 -199 0 -199 0 -12 25 c-9 20
-8 31 2 50 l13 25 381 0 c352 0 383 2 409 18 74 50 74 104 0 154 -26 17 -65
18 -658 18 -477 0 -634 3 -643 12 -7 7 -12 24 -12 38 0 14 5 31 12 38 9 9 146
12 554 12 617 0 581 -5 591 82 5 42 2 50 -22 72 l-28 26 -395 0 c-354 0 -397
2 -414 17 -21 18 -24 53 -6 71 9 9 192 12 761 12 l749 0 -6 -37z m-3905 -2
c81 -82 -10 -248 -124 -227 -28 5 -43 16 -57 39 -73 119 85 283 181 188z m260
0 c55 -55 33 -165 -43 -211 -58 -35 -115 -23 -143 30 -44 86 28 210 123 210
24 0 42 -9 63 -29z m954 -51 c10 -56 21 -58 47 -6 21 44 24 46 65 46 24 0 43
-2 43 -4 0 -2 -43 -74 -96 -160 l-96 -156 -45 0 -45 0 18 28 c9 15 29 44 42
65 l25 38 -26 89 c-15 49 -27 91 -27 94 0 4 20 6 44 6 44 0 44 0 51 -40z
m-1870 -116 c14 -6 12 -11 -11 -35 -25 -26 -54 -38 -54 -23 0 5 42 62 47 63 1
1 9 -2 18 -5z m-107 -9 c-2 -3 -121 -90 -264 -194 -250 -184 -259 -189 -271
-168 -15 27 -38 10 281 209 229 144 269 167 254 153z m87 -237 c-31 -95 -73
-222 -92 -283 -20 -60 -38 -113 -40 -118 -6 -9 -43 11 -43 24 0 15 223 559
228 555 2 -2 -22 -82 -53 -178z m-65 113 c0 -4 -16 -23 -35 -43 -25 -25 -41
-34 -55 -31 -27 7 -26 11 16 54 24 25 42 35 55 32 10 -3 19 -8 19 -12z m2160
-93 c123 -63 141 -181 51 -325 -48 -77 -124 -183 -130 -183 -12 1 -132 181
-161 241 -34 72 -37 112 -15 167 21 49 52 81 100 103 54 25 102 24 155 -3z
m3130 -143 l88 -160 -276 -3 c-151 -1 -277 -1 -278 1 -2 2 3 73 11 158 8 85
15 157 15 162 0 4 79 6 176 5 l176 -3 88 -160z m-3732 97 c3 -22 1 -23 -41
-17 -48 7 -87 -6 -87 -30 0 -7 25 -38 55 -68 65 -63 70 -90 26 -139 -28 -32
-32 -33 -107 -33 -62 0 -79 3 -81 15 -6 30 11 41 45 29 40 -14 78 -5 92 22 10
18 4 28 -45 80 -49 51 -56 63 -51 87 4 15 20 40 37 55 27 25 36 28 92 25 56
-3 62 -5 65 -26z m-1162 2 c-3 -9 -6 -18 -6 -20 0 -2 -25 -4 -55 -4 -49 0 -55
-2 -59 -22 -9 -39 -46 -231 -46 -234 0 -2 -13 -4 -30 -4 -37 0 -37 4 -10 135
27 132 29 125 -30 125 -43 0 -50 3 -50 20 0 19 7 20 146 20 129 0 145 -2 140
-16z m225 6 c13 -8 19 -21 19 -47 0 -28 -8 -43 -36 -70 l-37 -34 31 -70 31
-69 -37 0 c-37 0 -38 1 -60 65 -18 49 -28 65 -43 65 -13 0 -19 -7 -19 -21 0
-11 -5 -40 -11 -65 -10 -39 -14 -44 -40 -44 -16 0 -29 5 -29 12 0 6 12 74 27
150 l27 138 79 0 c43 0 87 -5 98 -10z m290 -135 c15 -77 28 -143 28 -147 1 -5
-15 -8 -34 -8 -28 0 -35 4 -35 19 0 44 -10 51 -71 51 -58 0 -60 -1 -76 -35
-13 -28 -22 -35 -45 -35 -16 0 -27 3 -25 8 2 4 35 61 72 127 100 177 92 167
127 163 l31 -3 28 -140z m248 50 c24 -52 47 -92 51 -90 4 3 15 45 25 95 16 83
19 90 41 90 13 0 24 -5 24 -12 0 -6 -12 -74 -27 -150 l-27 -138 -29 0 c-26 0
-32 8 -77 101 l-48 102 -11 -39 c-6 -22 -11 -44 -11 -51 0 -7 -5 -35 -11 -63
-9 -43 -14 -50 -35 -50 -13 0 -24 3 -24 8 0 4 12 71 27 150 l27 142 30 0 c29
-1 34 -7 75 -95z m659 79 c63 -44 -15 -164 -107 -164 l-37 0 -12 -60 c-12 -57
-14 -60 -42 -60 -17 0 -30 5 -30 12 0 6 12 74 27 150 l27 138 76 0 c52 0 82
-5 98 -16z m723 6 c13 -8 19 -21 19 -47 0 -28 -8 -43 -36 -70 l-37 -34 31 -70
31 -69 -37 0 c-37 0 -38 1 -60 65 -18 49 -28 65 -43 65 -13 0 -19 -7 -19 -21
0 -11 -5 -40 -11 -65 -10 -39 -14 -44 -40 -44 -16 0 -29 5 -29 12 0 6 12 74
27 150 l27 138 79 0 c43 0 87 -5 98 -10z m365 -6 c-3 -9 -6 -18 -6 -20 0 -2
-24 -4 -54 -4 l-54 0 -11 -52 c-48 -228 -41 -208 -77 -208 l-32 0 27 130 27
130 -57 0 c-52 0 -57 2 -52 20 5 19 14 20 150 20 128 0 144 -2 139 -16z
m-3026 -11 c3 -3 -19 -27 -48 -53 -51 -45 -56 -48 -85 -38 l-30 11 52 50 c44
42 56 48 79 42 15 -4 29 -9 32 -12z m3252 -100 c22 -20 23 -41 1 -65 -14 -16
-33 -18 -139 -18 -130 0 -154 8 -154 50 0 42 24 50 152 50 99 0 125 -3 140
-17z m-3423 -64 l33 -12 -58 -58 c-62 -63 -67 -65 -110 -49 l-28 11 59 59 c33
33 62 60 66 60 3 0 21 -5 38 -11z m-136 -221 c-4 -7 -25 -38 -46 -68 l-38 -55
1745 -3 1746 -2 0 -50 0 -50 -1865 0 -1866 0 103 120 103 120 63 0 c48 0 61
-3 55 -12z m5773 -239 c-3 -17 -6 -38 -6 -45 0 -10 -16 -14 -61 -14 l-61 0 6
31 c3 17 6 38 6 45 0 10 16 14 61 14 l62 0 -7 -31z m-1758 -74 c140 -59 164
-246 42 -334 -105 -76 -250 -35 -296 84 -59 156 101 313 254 250z m1410 0
c100 -42 148 -155 107 -253 -35 -82 -107 -126 -197 -120 -197 14 -244 286 -63
369 49 23 104 24 153 4z"/>
<path d="M3246 3739 c-8 -39 -4 -43 29 -35 21 5 26 12 23 34 -2 19 -10 28 -24
30 -17 2 -23 -4 -28 -29z"/>
<path d="M3228 3605 c-3 -31 -1 -35 18 -35 42 0 72 51 38 64 -37 14 -52 7 -56
-29z"/>
<path d="M3513 3674 c-20 -9 -36 -70 -23 -94 14 -25 34 -26 60 0 43 43 15 115
-37 94z"/>
<path d="M3773 3674 c-20 -9 -36 -70 -23 -94 23 -43 80 -7 80 50 0 39 -23 57
-57 44z"/>
<path d="M4912 3203 c-35 -30 -38 -68 -8 -97 31 -32 69 -33 96 -4 27 29 25 64
-5 93 -28 29 -55 32 -83 8z"/>
<path d="M3366 3238 c-3 -13 -6 -34 -6 -47 0 -20 3 -22 27 -16 40 10 54 25 51
54 -2 21 -9 27 -34 29 -26 3 -33 -1 -38 -20z"/>
<path d="M3668 3169 c-16 -27 -28 -51 -28 -54 0 -3 18 -5 41 -5 l40 0 -7 48
c-3 26 -9 50 -13 54 -3 4 -18 -15 -33 -43z"/>
<path d="M4566 3224 c-4 -19 -10 -42 -13 -50 -8 -22 30 -17 61 7 29 23 35 63
10 73 -37 14 -52 6 -58 -30z"/>
<path d="M5286 3238 c-3 -13 -6 -34 -6 -47 0 -20 3 -22 27 -16 40 10 54 25 51
54 -2 21 -9 27 -34 29 -26 3 -33 -1 -38 -20z"/>
<path d="M6331 2486 c-87 -48 -50 -186 49 -186 51 0 100 49 100 99 0 75 -83
124 -149 87z m89 -46 c11 -11 20 -29 20 -40 0 -26 -34 -60 -60 -60 -26 0 -60
34 -60 60 0 26 34 60 60 60 11 0 29 -9 40 -20z"/>
<path d="M7741 2486 c-87 -48 -50 -186 49 -186 51 0 100 49 100 99 0 75 -83
124 -149 87z m89 -46 c11 -11 20 -29 20 -40 0 -26 -34 -60 -60 -60 -26 0 -60
34 -60 60 0 26 34 60 60 60 11 0 29 -9 40 -20z"/>
</g>
</svg>
